<svg xmlns="http://www.w3.org/2000/svg" width="37.782" height="57.25" viewBox="0 0 37.782 57.25">
  <defs>
    <style>
      .cls-1 {
        fill: #ffe600;
        fill-rule: evenodd;
      }
    </style>
  </defs>
  <path id="S_Shape" data-name="S Shape" class="cls-1" d="M414.151,59.381a13.962,13.962,0,0,0-1.653-3.8,22.8,22.8,0,0,0-2.28-3.066,34.584,34.584,0,0,0-2.912-2.859c-0.315-.285-0.835-0.721-1.591-1.334-0.7-.57-1.275-1.059-1.7-1.453a16.249,16.249,0,0,1-1.349-1.455,5.57,5.57,0,0,1-.993-1.71,5.838,5.838,0,0,1-.327-1.974,3.462,3.462,0,0,1,.506-1.915,1.248,1.248,0,0,1,1.166-.589,1.006,1.006,0,0,1,.671.214,1.572,1.572,0,0,1,.478.724,7.137,7.137,0,0,1,.318,1.27,9.106,9.106,0,0,1,.1,1.367c0,0.2-.01.461-0.031,0.783-0.024.369-.035,0.639-0.035,0.812v1.089l1.079-.149,8.217-1.136,0.82-.113V42.634l0.016-.241,0-.036V42.322a10.811,10.811,0,0,0-3.2-7.834A11.1,11.1,0,0,0,408.8,32.48l-5.4-11.367s-0.412-.49-0.448.15,1.145,4.834,1.089,6.395c-0.074.865-.528,2.37-2.2,1.523a13.159,13.159,0,0,1-3.857-4.231c-0.131-.245-0.7-0.433-0.451.3s2.445,4.665,1.844,6.244a2.112,2.112,0,0,1-.309.423,11.678,11.678,0,0,0-1.854.786,4.685,4.685,0,0,1-2.371-.813c-2.952-1.825-5.172-3.367-7.242-4.871a0.585,0.585,0,0,0-.266-0.028c-0.129-.014-0.158.15-0.093,0.372,1.506,2.069,3.048,4.288,4.873,7.241a4.828,4.828,0,0,1,.813,2.286,10.208,10.208,0,0,0-.792,1.946,2.205,2.205,0,0,1-.417.3c-1.579.6-5.51-1.6-6.244-1.844s-0.544.32-.3,0.452a13.123,13.123,0,0,1,4.232,3.855c0.846,1.674-.658,2.126-1.524,2.2-1.562.056-5.756-1.128-6.395-1.091s-0.15.452-.15,0.452L392.791,48.6l0.151-.212c0.029,0.063.058,0.132,0.09,0.193a12.434,12.434,0,0,0,1.606,2.332,23.617,23.617,0,0,0,1.725,1.848c0.486,0.456,1.133,1.019,1.913,1.668l2.457,2.088c2.874,2.524,4.331,5.047,4.331,7.5,0,2.068-.882,2.068-1.41,2.068a1.158,1.158,0,0,1-.769-0.257,2.241,2.241,0,0,1-.631-0.819,6.265,6.265,0,0,1-.429-1.534,15.918,15.918,0,0,1-.218-1.882c-0.026-.587-0.042-1.284-0.042-2.074V58.37l-1.128.217-8.064,1.551-0.806.156,0.038,0.82a17.7,17.7,0,0,0,.856,4.758,14.373,14.373,0,0,0,2.143,4.095,9.99,9.99,0,0,0,3.771,3.017,12.16,12.16,0,0,0,5.257,1.1,11.353,11.353,0,0,0,7.8-2.874,9.607,9.607,0,0,0,3.268-7.472A16.7,16.7,0,0,0,414.151,59.381Zm-36.8-19.415a1.542,1.542,0,1,0,2.181,0A1.54,1.54,0,0,0,377.35,39.965Zm6.864-3.1a1.543,1.543,0,1,0-2.181,0A1.54,1.54,0,0,0,384.214,36.862ZM397.4,24.015a1.542,1.542,0,1,0-2.181,0A1.54,1.54,0,0,0,397.4,24.015Zm5.532-4.553a1.543,1.543,0,1,0-2.182,0A1.543,1.543,0,0,0,402.931,19.462Zm-16.647,6.791a1.543,1.543,0,1,0-2.182,0A1.543,1.543,0,0,0,386.284,26.253Z" transform="translate(-376.906 -16.844)"/>
</svg>
